<svg width="56" height="56" viewBox="0 0 56 56" fill="none" xmlns="http://www.w3.org/2000/svg">
<g clip-path="url(#clip0_2301_7590)">
<path fill-rule="evenodd" clip-rule="evenodd" d="M48.358 36.4391L50.7685 16.8624H14.3291L11.2002 41.9999L41.3831 42L48.358 36.4391Z" fill="#F3F3E0"/>
<path d="M50.7685 16.8624L51.8002 8.48317H48.7986H40.3309H26.9091H18.4414H15.372L14.3291 16.8624H50.7685Z" fill="#AA8FFF"/>
<path d="M50.7685 16.8624L51.8002 8.48317H48.7986M50.7685 16.8624H14.3291M50.7685 16.8624L48.358 36.4391M14.3291 16.8624L11.2002 41.9999L41.3831 42M14.3291 16.8624L15.372 8.48317H18.4414M42.1243 12.0059C40.9671 11.1855 40.3398 9.84095 40.3309 8.48317M20.2348 12.0059C19.0776 11.1855 18.4503 9.84095 18.4414 8.48317M26.9091 8.48317C26.9082 8.23206 26.8849 7.98265 26.8407 7.73784C26.6243 6.53683 25.9067 5.44625 24.8672 4.80713C22.9499 3.62839 20.3474 4.2162 19.113 6.13447C18.6536 6.84848 18.4361 7.6682 18.4414 8.48317M26.9091 8.48317H40.3309M26.9091 8.48317H18.4414M48.7986 8.48317C48.7976 8.23206 48.7743 7.98265 48.7302 7.73784C48.5138 6.53683 47.7962 5.44625 46.7566 4.80713C44.8393 3.62839 42.2369 4.2162 41.0025 6.13447C40.543 6.84848 40.3256 7.6682 40.3309 8.48317M48.7986 8.48317H40.3309M41.3831 42L48.358 36.4391M41.3831 42L42.0678 36.4391H48.358" stroke="#1A0826" stroke-linecap="round" stroke-linejoin="round"/>
<path d="M32.6986 36.4V34.6995C34.5007 34.6253 35.8041 34.2598 36.6086 33.6029C37.4239 32.9354 37.8208 32.0984 37.7994 31.0918C37.7994 30.329 37.5956 29.7251 37.1879 29.2801C36.7803 28.8351 36.1474 28.5013 35.2892 28.2788C34.8601 28.1729 34.3666 28.0828 33.8088 28.0087C33.2617 27.9345 32.6503 27.8815 31.9745 27.8497C30.8696 27.7862 30.0114 27.6961 29.3999 27.5796C28.7992 27.463 28.3755 27.2988 28.1287 27.0869C28.0107 26.9809 27.9196 26.8591 27.8552 26.7214C27.8016 26.573 27.7747 26.4141 27.7747 26.2446C27.7747 25.7042 28.0322 25.2804 28.5471 24.9732C29.062 24.6553 29.9631 24.4964 31.2504 24.4964C32.484 24.4964 33.4763 24.6606 34.2272 24.9891C34.9888 25.3069 35.4501 25.8738 35.611 26.6896H37.6867C37.4615 25.5665 36.9305 24.6924 36.0937 24.0673C35.257 23.4316 34.1146 23.0449 32.6664 22.9071V21H30.7676V22.8594C29.6198 22.9018 28.6758 23.0766 27.9356 23.3839C27.1955 23.6912 26.6484 24.0938 26.2944 24.5917C26.112 24.846 25.9779 25.1162 25.8921 25.4023C25.8063 25.6883 25.7634 25.9903 25.7634 26.3082C25.7634 27.0498 25.9618 27.6431 26.3587 28.0881C26.7556 28.5225 27.3456 28.8457 28.1287 29.0576C28.5256 29.1741 28.9708 29.2695 29.4643 29.3437C29.9577 29.4072 30.4995 29.4602 31.0895 29.5026C32.2695 29.5662 33.2027 29.6456 33.8893 29.741C34.5758 29.8363 35.0693 29.9953 35.3696 30.2178C35.5091 30.3237 35.6164 30.4614 35.6915 30.631C35.7666 30.8005 35.8041 30.9965 35.8041 31.219C35.8041 31.7805 35.5252 32.2202 34.9674 32.5381C34.4203 32.8559 33.4602 33.0149 32.0871 33.0149C30.6926 33.0149 29.5984 32.8189 28.8046 32.4268C28.0107 32.0348 27.5226 31.362 27.3403 30.4085H25.2002C25.4147 31.7223 25.9511 32.7288 26.8093 33.4281C27.6782 34.1273 28.9976 34.5406 30.7676 34.6677V36.4H32.6986Z" fill="#1A0826"/>
<path d="M11.7949 28.4126C12.6352 25.2766 16.7071 25.1081 16.8653 27.7447C16.9337 28.8847 16.179 29.7031 15.2971 30.6594C14.5472 31.4725 13.7054 32.3853 13.1995 33.6803C13.1995 33.6803 10.9547 31.5485 11.7949 28.4126Z" fill="#AA8FFF"/>
<path fill-rule="evenodd" clip-rule="evenodd" d="M17.8798 31.4854C19.5925 29.6137 21.5224 27.5047 21.5224 23.634H4.51246C4.51246 27.1669 6.54621 29.4665 8.34208 31.4973C11.449 35.0104 11.605 37.2901 8.34852 40.6998C6.55108 42.5819 4.51253 44.7164 4.51253 47.9882H7.94495C10.4509 47.9882 11.9538 46.4164 11.9538 43.956C11.9538 39.7277 15.886 38.5922 17.8843 40.786C14.8195 37.3842 14.745 34.9112 17.8798 31.4854ZM11.7949 28.4126C12.6352 25.2766 16.7071 25.1081 16.8653 27.7447C16.9337 28.8847 16.179 29.7031 15.2971 30.6594C14.5472 31.4725 13.7054 32.3853 13.1995 33.6803C13.1995 33.6803 10.9547 31.5485 11.7949 28.4126Z" fill="white"/>
<path d="M17.8843 40.786C19.5959 42.6858 21.5225 44.8241 21.5225 47.9882H7.94495C10.4509 47.9882 11.9538 46.4164 11.9538 43.956C11.9538 39.7277 15.886 38.5922 17.8843 40.786Z" fill="#AA8FFF"/>
<path d="M17.8843 40.786C19.5959 42.6858 21.5225 44.8241 21.5225 47.9882H7.94495M17.8843 40.786C15.886 38.5922 11.9538 39.7277 11.9538 43.956C11.9538 46.4164 10.4509 47.9882 7.94495 47.9882M17.8843 40.786C14.8195 37.3842 14.745 34.9112 17.8798 31.4854C19.5925 29.6137 21.5224 27.5047 21.5224 23.634H4.51246C4.51246 27.1669 6.54621 29.4665 8.34208 31.4973C11.449 35.0104 11.605 37.2901 8.34852 40.6998C6.55108 42.5819 4.51253 44.7164 4.51253 47.9882H7.94495M11.7949 28.4126C12.6352 25.2766 16.7071 25.1081 16.8653 27.7447C16.9337 28.8847 16.179 29.7031 15.2971 30.6594C14.5472 31.4725 13.7054 32.3853 13.1995 33.6803C13.1995 33.6803 10.9547 31.5485 11.7949 28.4126Z" stroke="#1A0826" stroke-linecap="round" stroke-linejoin="round"/>
</g>
<defs>
<clipPath id="clip0_2301_7590">
<rect width="56" height="56" fill="white"/>
</clipPath>
</defs>
</svg>
